<mxfile host="app.diagrams.net" modified="2024-04-14T05:06:46.365Z" agent="Mozilla/5.0 (X11; Linux x86_64) AppleWebKit/537.36 (KHTML, like Gecko) Chrome/123.0.0.0 Safari/537.36" etag="Ma2_jkt9sMB2nppIHS19" version="24.2.0" type="device">
  <diagram id="4EysrIUiIzhdOBFNZJKH" name="Page-1">
    <mxGraphModel dx="2074" dy="1121" grid="1" gridSize="10" guides="1" tooltips="1" connect="1" arrows="1" fold="1" page="1" pageScale="1" pageWidth="827" pageHeight="1169" math="0" shadow="0">
      <root>
        <mxCell id="0" />
        <mxCell id="1" parent="0" />
        <mxCell id="CgFyjtPTiPq2iYC9rme7-11" value="" style="rounded=0;whiteSpace=wrap;html=1;align=left;fillColor=#dae8fc;strokeColor=#6c8ebf;" parent="1" vertex="1">
          <mxGeometry x="40" y="30" width="720" height="238" as="geometry" />
        </mxCell>
        <mxCell id="CgFyjtPTiPq2iYC9rme7-5" value="開発フェーズ" style="text;html=1;strokeColor=none;fillColor=none;align=center;verticalAlign=middle;whiteSpace=wrap;rounded=0;" parent="1" vertex="1">
          <mxGeometry x="50" y="135" width="80" height="30" as="geometry" />
        </mxCell>
        <mxCell id="CgFyjtPTiPq2iYC9rme7-10" style="edgeStyle=orthogonalEdgeStyle;rounded=0;orthogonalLoop=1;jettySize=auto;html=1;" parent="1" source="CgFyjtPTiPq2iYC9rme7-8" target="CgFyjtPTiPq2iYC9rme7-9" edge="1">
          <mxGeometry relative="1" as="geometry" />
        </mxCell>
        <mxCell id="CgFyjtPTiPq2iYC9rme7-8" value="設計:&lt;br&gt;&lt;div style=&quot;text-align: left&quot;&gt;&lt;span&gt;実装する機能とその振る舞いを定義する。&lt;/span&gt;&lt;/div&gt;" style="rounded=1;whiteSpace=wrap;html=1;" parent="1" vertex="1">
          <mxGeometry x="163.5" y="50" width="240" height="60" as="geometry" />
        </mxCell>
        <mxCell id="CgFyjtPTiPq2iYC9rme7-13" style="edgeStyle=orthogonalEdgeStyle;rounded=0;orthogonalLoop=1;jettySize=auto;html=1;entryX=1;entryY=0.5;entryDx=0;entryDy=0;exitX=1;exitY=0.5;exitDx=0;exitDy=0;dashed=1;" parent="1" source="CgFyjtPTiPq2iYC9rme7-9" target="CgFyjtPTiPq2iYC9rme7-8" edge="1">
          <mxGeometry relative="1" as="geometry">
            <Array as="points">
              <mxPoint x="530" y="220" />
              <mxPoint x="530" y="80" />
            </Array>
          </mxGeometry>
        </mxCell>
        <mxCell id="CgFyjtPTiPq2iYC9rme7-9" value="テスト:&lt;br&gt;&lt;div style=&quot;text-align: left&quot;&gt;&lt;span&gt;まずは単純なテスト1つ書く。&lt;/span&gt;&lt;/div&gt;&lt;div style=&quot;text-align: left&quot;&gt;（最初は必ず失敗する。実装がないから。）&lt;/div&gt;&lt;div style=&quot;text-align: left&quot;&gt;&lt;span&gt;これがパスしたら次の振る舞いをテストする。&lt;/span&gt;&lt;/div&gt;" style="rounded=1;whiteSpace=wrap;html=1;" parent="1" vertex="1">
          <mxGeometry x="166" y="190" width="235" height="60" as="geometry" />
        </mxCell>
        <mxCell id="CgFyjtPTiPq2iYC9rme7-17" value="" style="rounded=0;whiteSpace=wrap;html=1;align=left;fillColor=#f8cecc;strokeColor=#b85450;strokeWidth=3;" parent="1" vertex="1">
          <mxGeometry x="40" y="270" width="720" height="330" as="geometry" />
        </mxCell>
        <mxCell id="CgFyjtPTiPq2iYC9rme7-18" value="効率化フェーズ" style="text;html=1;strokeColor=none;fillColor=none;align=center;verticalAlign=middle;whiteSpace=wrap;rounded=0;" parent="1" vertex="1">
          <mxGeometry x="50" y="420" width="80" height="30" as="geometry" />
        </mxCell>
        <mxCell id="CgFyjtPTiPq2iYC9rme7-19" style="edgeStyle=orthogonalEdgeStyle;rounded=0;orthogonalLoop=1;jettySize=auto;html=1;" parent="1" source="CgFyjtPTiPq2iYC9rme7-20" target="CgFyjtPTiPq2iYC9rme7-22" edge="1">
          <mxGeometry relative="1" as="geometry" />
        </mxCell>
        <mxCell id="CgFyjtPTiPq2iYC9rme7-20" value="計測:&lt;br&gt;&lt;div style=&quot;text-align: left&quot;&gt;ベンチマークを実行し性能を測る。&lt;/div&gt;" style="rounded=1;whiteSpace=wrap;html=1;" parent="1" vertex="1">
          <mxGeometry x="163.5" y="290" width="240" height="60" as="geometry" />
        </mxCell>
        <mxCell id="CgFyjtPTiPq2iYC9rme7-21" style="edgeStyle=orthogonalEdgeStyle;rounded=0;orthogonalLoop=1;jettySize=auto;html=1;dashed=1;" parent="1" source="CgFyjtPTiPq2iYC9rme7-22" edge="1">
          <mxGeometry relative="1" as="geometry">
            <Array as="points">
              <mxPoint x="560" y="540" />
              <mxPoint x="560" y="230" />
            </Array>
            <mxPoint x="401" y="560" as="sourcePoint" />
            <mxPoint x="400" y="230" as="targetPoint" />
          </mxGeometry>
        </mxCell>
        <mxCell id="CgFyjtPTiPq2iYC9rme7-22" value="評価:&lt;br&gt;&lt;div style=&quot;text-align: left&quot;&gt;性能要件を満たすかを確認する。&lt;/div&gt;&lt;div style=&quot;text-align: left&quot;&gt;性能要件を満たさない場合はフィードバックループを実行する&lt;/div&gt;" style="rounded=1;whiteSpace=wrap;html=1;" parent="1" vertex="1">
          <mxGeometry x="166" y="510" width="235" height="60" as="geometry" />
        </mxCell>
        <mxCell id="CgFyjtPTiPq2iYC9rme7-23" value="フィードバックループ:&lt;br&gt;&lt;div style=&quot;text-align: left&quot;&gt;&lt;span&gt;性能要件を満たすように&lt;/span&gt;&lt;/div&gt;&lt;div style=&quot;text-align: left&quot;&gt;&lt;span&gt;- ボトルネックの発見&lt;/span&gt;&lt;/div&gt;&lt;div style=&quot;text-align: left&quot;&gt;&lt;span&gt;- 最適化のレベルの選択&lt;/span&gt;&lt;/div&gt;&lt;div style=&quot;text-align: left&quot;&gt;&lt;span&gt;- 最適化実装&lt;/span&gt;&lt;/div&gt;&lt;div style=&quot;text-align: left&quot;&gt;&lt;span&gt;を行う。&lt;/span&gt;&lt;/div&gt;&lt;div style=&quot;text-align: left&quot;&gt;※レベルの選択とは、システムアーキテクチャレベルの最適化なのか、アルゴリズムとデータ構造レベルか、実装レベルか、ハードウェアレベルかのどれを選択するかということ。&lt;/div&gt;" style="rounded=1;whiteSpace=wrap;html=1;" parent="1" vertex="1">
          <mxGeometry x="420" y="355" width="290" height="160" as="geometry" />
        </mxCell>
        <mxCell id="CgFyjtPTiPq2iYC9rme7-24" style="edgeStyle=orthogonalEdgeStyle;rounded=0;orthogonalLoop=1;jettySize=auto;html=1;" parent="1" source="CgFyjtPTiPq2iYC9rme7-9" target="CgFyjtPTiPq2iYC9rme7-20" edge="1">
          <mxGeometry relative="1" as="geometry" />
        </mxCell>
        <mxCell id="CgFyjtPTiPq2iYC9rme7-26" value="" style="rounded=0;whiteSpace=wrap;html=1;align=left;fillColor=#d5e8d4;strokeColor=#82b366;" parent="1" vertex="1">
          <mxGeometry x="40" y="602" width="720" height="90" as="geometry" />
        </mxCell>
        <mxCell id="CgFyjtPTiPq2iYC9rme7-27" value="リリースフェーズ" style="text;html=1;strokeColor=none;fillColor=none;align=center;verticalAlign=middle;whiteSpace=wrap;rounded=0;" parent="1" vertex="1">
          <mxGeometry x="50" y="632" width="90" height="30" as="geometry" />
        </mxCell>
        <mxCell id="CgFyjtPTiPq2iYC9rme7-29" value="リリース:" style="rounded=1;whiteSpace=wrap;html=1;" parent="1" vertex="1">
          <mxGeometry x="163.5" y="617" width="240" height="60" as="geometry" />
        </mxCell>
        <mxCell id="CgFyjtPTiPq2iYC9rme7-2" value="" style="endArrow=none;html=1;rounded=0;dashed=1;" parent="1" edge="1">
          <mxGeometry width="50" height="50" relative="1" as="geometry">
            <mxPoint x="140" y="690" as="sourcePoint" />
            <mxPoint x="140" y="30" as="targetPoint" />
          </mxGeometry>
        </mxCell>
        <mxCell id="CgFyjtPTiPq2iYC9rme7-33" style="edgeStyle=orthogonalEdgeStyle;rounded=0;orthogonalLoop=1;jettySize=auto;html=1;" parent="1" source="CgFyjtPTiPq2iYC9rme7-22" target="CgFyjtPTiPq2iYC9rme7-29" edge="1">
          <mxGeometry relative="1" as="geometry" />
        </mxCell>
        <mxCell id="CgFyjtPTiPq2iYC9rme7-16" value="フィードバックループ:&lt;br&gt;テストがパスするように設計/実装/リファクタリングする。" style="rounded=1;whiteSpace=wrap;html=1;" parent="1" vertex="1">
          <mxGeometry x="414" y="130" width="290" height="40" as="geometry" />
        </mxCell>
      </root>
    </mxGraphModel>
  </diagram>
</mxfile>
